HIERARCHY
ROOT Hips
{
	OFFSET 0.058547 100.481255 -0.522458
	CHANNELS 6 Xposition Yposition Zposition Xrotation Yrotation Zrotation 
	JOINT Spine
	{
		OFFSET -0.279214 12.230705 -2.892139
		CHANNELS 3 Xrotation Yrotation Zrotation
		JOINT Spine1
		{
			OFFSET -0.232678 10.192256 -1.242257
			CHANNELS 3 Xrotation Yrotation Zrotation
			JOINT Spine1_split
			{
				OFFSET -0.232678 10.192256 -1.242257
				CHANNELS 3 Xrotation Yrotation Zrotation
				JOINT Spine2
				{
					OFFSET -0.232678 10.192256 -1.242257
					CHANNELS 3 Xrotation Yrotation Zrotation
					JOINT Neck
					{
						OFFSET -0.418821 17.814224 8.416937
						CHANNELS 3 Xrotation Yrotation Zrotation
						JOINT Head
						{
							OFFSET 0.000000 7.031097 3.806764
							CHANNELS 3 Xrotation Yrotation Zrotation
							JOINT HeadTop_End
							{
								OFFSET 0.000000 24.646591 12.978601
								CHANNELS 3 Xrotation Yrotation Zrotation
								End Site
								{
									OFFSET 0.000000 0.000000 0.000000
								}
							}
						}
					}
					JOINT LeftShoulder
					{
						OFFSET 8.476512 7.247673 -3.868757
						CHANNELS 3 Xrotation Yrotation Zrotation
						JOINT LeftShoulder_split
						{
							OFFSET 8.476512 7.247673 -3.868757
							CHANNELS 3 Xrotation Yrotation Zrotation
							JOINT LeftArm
							{
								OFFSET 9.308996 -2.777740 0.208551
								CHANNELS 3 Xrotation Yrotation Zrotation
								JOINT LeftForeArm
								{
									OFFSET 29.972336 0.000015 0.000022
									CHANNELS 3 Xrotation Yrotation Zrotation
									JOINT LeftHand
									{
										OFFSET 26.026470 0.000015 0.000033
										CHANNELS 3 Xrotation Yrotation Zrotation
										JOINT LeftHandThumb1
										{
											OFFSET 12.240555 -7.117950 9.230400
											CHANNELS 3 Xrotation Yrotation Zrotation
											JOINT LeftHandThumb2
											{
												OFFSET 4.138626 -2.389450 2.389374
												CHANNELS 3 Xrotation Yrotation Zrotation
												JOINT LeftHandThumb3
												{
													OFFSET 2.726952 -1.574417 1.574393
													CHANNELS 3 Xrotation Yrotation Zrotation
													JOINT LeftHandThumb4
													{
														OFFSET 3.940979 -2.275375 2.275301
														CHANNELS 3 Xrotation Yrotation Zrotation
														End Site
														{
															OFFSET 0.000000 0.000000 0.000000
														}
													}
												}
											}
										}
										JOINT LeftHandIndex1
										{
											OFFSET 24.424660 -1.966187 5.959913
											CHANNELS 3 Xrotation Yrotation Zrotation
											JOINT LeftHandIndex2
											{
												OFFSET 6.426682 0.000015 0.000035
												CHANNELS 3 Xrotation Yrotation Zrotation
												JOINT LeftHandIndex3
												{
													OFFSET 5.337883 -0.000031 0.000035
													CHANNELS 3 Xrotation Yrotation Zrotation
													JOINT LeftHandIndex4
													{
														OFFSET 4.409393 -0.000015 0.000044
														CHANNELS 3 Xrotation Yrotation Zrotation
														End Site
														{
															OFFSET 0.000000 0.000000 0.000000
														}
													}
												}
											}
										}
										JOINT LeftHandMiddle1
										{
											OFFSET 23.810127 0.000000 0.000041
											CHANNELS 3 Xrotation Yrotation Zrotation
											JOINT LeftHandMiddle2
											{
												OFFSET 7.176491 -0.000015 0.000051
												CHANNELS 3 Xrotation Yrotation Zrotation
												JOINT LeftHandMiddle3
												{
													OFFSET 6.774864 -0.000015 0.000032
													CHANNELS 3 Xrotation Yrotation Zrotation
													JOINT LeftHandMiddle4
													{
														OFFSET 5.402740 -0.027710 -0.077597
														CHANNELS 3 Xrotation Yrotation Zrotation
														End Site
														{
															OFFSET 0.000000 0.000000 0.000000
														}
													}
												}
											}
										}
										JOINT LeftHandRing1
										{
											OFFSET 22.908371 -0.858917 -6.017762
											CHANNELS 3 Xrotation Yrotation Zrotation
											JOINT LeftHandRing2
											{
												OFFSET 6.337524 0.000000 -0.000050
												CHANNELS 3 Xrotation Yrotation Zrotation
												JOINT LeftHandRing3
												{
													OFFSET 5.779289 0.000000 -0.000029
													CHANNELS 3 Xrotation Yrotation Zrotation
													JOINT LeftHandRing4
													{
														OFFSET 4.965714 0.000031 -0.000057
														CHANNELS 3 Xrotation Yrotation Zrotation
														End Site
														{
															OFFSET 0.000000 0.000000 0.000000
														}
													}
												}
											}
										}
										JOINT LeftHandPinky1
										{
											OFFSET 20.036995 -1.565994 -10.945109
											CHANNELS 3 Xrotation Yrotation Zrotation
											JOINT LeftHandPinky2
											{
												OFFSET 5.254700 -0.000015 0.000002
												CHANNELS 3 Xrotation Yrotation Zrotation
												JOINT LeftHandPinky3
												{
													OFFSET 4.810226 -0.000015 -0.000019
													CHANNELS 3 Xrotation Yrotation Zrotation
													JOINT LeftHandPinky4
													{
														OFFSET 3.647247 0.000015 -0.000044
														CHANNELS 3 Xrotation Yrotation Zrotation
														End Site
														{
															OFFSET 0.000000 0.000000 0.000000
														}
													}
												}
											}
										}
									}
								}
							}
						}
					}
					JOINT RightShoulder
					{
						OFFSET -7.570480 7.247673 -3.868757
						CHANNELS 3 Xrotation Yrotation Zrotation
						JOINT RightShoulder_split
						{
							OFFSET -7.570480 7.247673 -3.868757
							CHANNELS 3 Xrotation Yrotation Zrotation
							JOINT RightArm
							{
								OFFSET -9.309000 -2.777725 0.208549
								CHANNELS 3 Xrotation Yrotation Zrotation
								JOINT RightForeArm
								{
									OFFSET -29.972336 0.000061 -0.000048
									CHANNELS 3 Xrotation Yrotation Zrotation
									JOINT RightHand
									{
										OFFSET -26.026474 0.000092 0.000017
										CHANNELS 3 Xrotation Yrotation Zrotation
										JOINT RightHandThumb1
										{
											OFFSET -12.240570 -7.117905 9.230402
											CHANNELS 3 Xrotation Yrotation Zrotation
											JOINT RightHandThumb2
											{
												OFFSET -4.138580 -2.389465 2.389442
												CHANNELS 3 Xrotation Yrotation Zrotation
												JOINT RightHandThumb3
												{
													OFFSET -2.726990 -1.574402 1.574351
													CHANNELS 3 Xrotation Yrotation Zrotation
													JOINT RightHandThumb4
													{
														OFFSET -3.940971 -2.275345 2.275330
														CHANNELS 3 Xrotation Yrotation Zrotation
														End Site
														{
															OFFSET 0.000000 0.000000 0.000000
														}
													}
												}
											}
										}
										JOINT RightHandIndex1
										{
											OFFSET -24.424667 -1.966171 5.959853
											CHANNELS 3 Xrotation Yrotation Zrotation
											JOINT RightHandIndex2
											{
												OFFSET -6.426682 -0.000046 0.000010
												CHANNELS 3 Xrotation Yrotation Zrotation
												JOINT RightHandIndex3
												{
													OFFSET -5.337891 0.000015 0.000031
													CHANNELS 3 Xrotation Yrotation Zrotation
													JOINT RightHandIndex4
													{
														OFFSET -4.409386 0.000015 0.000044
														CHANNELS 3 Xrotation Yrotation Zrotation
														End Site
														{
															OFFSET 0.000000 0.000000 0.000000
														}
													}
												}
											}
										}
										JOINT RightHandMiddle1
										{
											OFFSET -23.810127 -0.000015 -0.000027
											CHANNELS 3 Xrotation Yrotation Zrotation
											JOINT RightHandMiddle2
											{
												OFFSET -7.176491 -0.000046 -0.000001
												CHANNELS 3 Xrotation Yrotation Zrotation
												JOINT RightHandMiddle3
												{
													OFFSET -6.774857 -0.000046 0.000038
													CHANNELS 3 Xrotation Yrotation Zrotation
													JOINT RightHandMiddle4
													{
														OFFSET -5.402740 -0.027740 -0.077594
														CHANNELS 3 Xrotation Yrotation Zrotation
														End Site
														{
															OFFSET 0.000000 0.000000 0.000000
														}
													}
												}
											}
										}
										JOINT RightHandRing1
										{
											OFFSET -22.908348 -0.858963 -6.017824
											CHANNELS 3 Xrotation Yrotation Zrotation
											JOINT RightHandRing2
											{
												OFFSET -6.337524 0.000046 -0.000019
												CHANNELS 3 Xrotation Yrotation Zrotation
												JOINT RightHandRing3
												{
													OFFSET -5.779289 0.000046 -0.000004
													CHANNELS 3 Xrotation Yrotation Zrotation
													JOINT RightHandRing4
													{
														OFFSET -4.965721 -0.000031 -0.000032
														CHANNELS 3 Xrotation Yrotation Zrotation
														End Site
														{
															OFFSET 0.000000 0.000000 0.000000
														}
													}
												}
											}
										}
										JOINT RightHandPinky1
										{
											OFFSET -20.036957 -1.566071 -10.945158
											CHANNELS 3 Xrotation Yrotation Zrotation
											JOINT RightHandPinky2
											{
												OFFSET -5.254700 0.000031 -0.000025
												CHANNELS 3 Xrotation Yrotation Zrotation
												JOINT RightHandPinky3
												{
													OFFSET -4.810226 -0.000015 -0.000048
													CHANNELS 3 Xrotation Yrotation Zrotation
													JOINT RightHandPinky4
													{
														OFFSET -3.647247 -0.000031 -0.000029
														CHANNELS 3 Xrotation Yrotation Zrotation
														End Site
														{
															OFFSET 0.000000 0.000000 0.000000
														}
													}
												}
											}
										}
									}
								}
							}
						}
					}
				}
			}
		}
	}
	JOINT LeftUpLeg
	{
		OFFSET 15.427091 -6.655090 0.678631
		CHANNELS 3 Xrotation Yrotation Zrotation
		JOINT LeftLeg
		{
			OFFSET 4.088469 -39.590321 13.023970
			CHANNELS 3 Xrotation Yrotation Zrotation
			JOINT LeftFoot
			{
				OFFSET -4.073973 -37.708702 -15.979749
				CHANNELS 3 Xrotation Yrotation Zrotation
				JOINT LeftToeBase
				{
					OFFSET 5.346369 -15.068922 20.645004
					CHANNELS 3 Xrotation Yrotation Zrotation
					JOINT LeftToe_End
					{
						OFFSET 2.754658 0.931270 11.300900
						CHANNELS 3 Xrotation Yrotation Zrotation
						End Site
						{
							OFFSET 0.000000 0.000000 0.000000
						}
					}
				}
			}
		}
	}
	JOINT RightUpLeg
	{
		OFFSET -15.569522 -6.655090 0.678631
		CHANNELS 3 Xrotation Yrotation Zrotation
		JOINT RightLeg
		{
			OFFSET -4.074467 -39.591820 13.023795
			CHANNELS 3 Xrotation Yrotation Zrotation
			JOINT RightFoot
			{
				OFFSET 4.088761 -37.707176 -15.979579
				CHANNELS 3 Xrotation Yrotation Zrotation
				JOINT RightToeBase
				{
					OFFSET -5.346370 -15.068919 20.645004
					CHANNELS 3 Xrotation Yrotation Zrotation
					JOINT RightToe_End
					{
						OFFSET -2.754656 0.931271 11.300900
						CHANNELS 3 Xrotation Yrotation Zrotation
						End Site
						{
							OFFSET 0.000000 0.000000 0.000000
						}
					}
				}
			}
		}
	}
}
MOTION
Frames: 4
Frame Time: 0.016667
1.474371 94.412605 -1.226707 -0.382940 -0.104990 -1.762056 -9.203734 1.233190 1.271561 7.246680 -0.041691 -1.878295 0.000000 0.000000 0.000000 7.251812 0.041101 -1.863931 2.287005 -1.008077 3.029061 -5.069787 -2.335753 2.401237 0.000000 -0.000000 0.000000 0.892944 -0.363511 -11.998602 0.000000 0.000000 0.000000 17.011882 -35.715472 -54.455254 0.000006 -20.409106 -0.000000 -23.627089 -1.885150 7.756463 0.941829 26.001881 8.523518 5.906860 15.708021 1.854953 0.437850 5.436860 3.283218 0.000002 0.000000 0.000001 0.309703 2.016814 -17.458715 0.135934 1.345140 -11.540227 0.034061 0.675993 -5.769339 0.000000 0.000000 0.000000 0.536146 2.630123 -23.032848 0.310200 2.017576 -17.472736 -0.025961 0.546721 -11.313806 -0.000001 -0.000000 0.000001 0.902780 3.363161 -30.044219 0.622746 2.824864 -24.859238 0.362684 2.178008 -18.916125 0.000001 0.000000 -0.000000 3.709906 7.250306 -36.050005 0.932496 -0.667008 -30.805116 0.609430 2.795988 -24.587800 -0.000000 -0.000002 -0.000000 1.709891 -7.765211 12.112751 0.000000 0.000000 0.000000 26.986424 49.483880 49.499897 0.000097 28.237877 -0.000002 -44.800802 -0.107883 -10.368577 6.197339 -20.735623 -12.670261 7.526092 -13.852503 0.551892 0.125477 -2.493834 -2.001470 0.000000 0.000000 0.000000 0.517222 -2.598667 22.509571 0.225182 -1.734165 14.796170 0.056519 -0.874360 7.396373 0.000000 0.000000 -0.000002 0.675975 -2.952355 25.787208 0.342060 -2.127746 18.263620 -0.031673 -0.466118 10.522728 -0.000000 0.000001 0.000002 0.902552 -3.380757 29.888047 0.521309 -2.608615 22.599576 0.234423 -1.768735 15.098292 0.000000 -0.000000 0.000001 1.130926 -3.749487 33.558495 0.678161 -2.956872 25.829622 0.347851 -2.145201 18.418983 -0.000000 0.000001 0.000000 -6.189223 5.442578 -0.115472 19.753486 -5.749427 -0.451659 -12.913580 -2.174867 4.249362 -0.011890 0.000000 0.000000 0.000000 -0.000000 -0.000000 -6.652072 -3.867187 2.462458 17.987689 5.257166 -0.747638 -10.686578 0.444012 -1.408341 -0.000082 0.000000 -0.000000 0.000000 0.000000 -0.000000 
1.462654 94.438614 -1.267647 -0.474443 -0.208418 -1.687329 -9.018491 1.158860 1.292060 7.243669 -0.054628 -1.914695 0.000000 0.000000 0.000000 7.249078 0.027204 -1.900876 2.289489 -0.980009 2.997443 -5.155915 -2.237614 2.396679 -0.000000 0.000000 -0.000000 0.896145 -0.370154 -11.998592 0.000000 0.000000 0.000000 16.953590 -35.995322 -54.460244 -0.000015 -19.793224 -0.000006 -25.397758 -1.730670 7.683538 0.982674 26.035459 8.514943 5.913111 15.710675 1.844641 0.440708 5.438288 3.278541 0.000001 0.000000 -0.000001 0.341393 2.114859 -18.337673 0.136221 1.346546 -11.552438 0.034132 0.676701 -5.775443 -0.000000 0.000000 0.000001 0.579527 2.729779 -23.907260 0.310456 2.018388 -17.479965 -0.025952 0.546855 -11.314987 0.000001 0.000001 -0.000000 0.961678 3.462830 -30.913323 0.622786 2.824961 -24.860258 0.362501 2.177465 -18.911153 -0.000000 -0.000002 -0.000003 3.833157 7.311323 -36.922961 0.932278 -0.667373 -30.801503 0.608955 2.794953 -24.578040 -0.000000 0.000001 -0.000001 1.710734 -7.768551 12.112846 0.000000 0.000000 0.000000 26.439328 49.476395 49.836711 0.000096 27.945130 0.000013 -44.313270 -0.051041 -10.381368 6.219342 -20.767716 -12.669265 7.526090 -13.852500 0.551897 0.125477 -2.493832 -2.001467 0.000001 -0.000003 -0.000000 0.517855 -2.600192 22.523561 0.225631 -1.735858 14.810949 0.056631 -0.875225 7.403751 0.000000 0.000000 0.000002 0.678613 -2.957806 25.796303 0.342433 -2.128881 18.273754 -0.032902 -0.466689 10.525462 0.000000 0.000000 0.000004 0.908324 -3.390781 29.891083 0.521501 -2.609077 22.603838 0.232830 -1.768794 15.095241 -0.000000 0.000000 0.000003 1.140063 -3.763230 33.556234 0.678155 -2.956862 25.829523 0.347572 -2.144364 18.411487 -0.000000 0.000000 0.000000 -5.956807 5.778420 -0.248800 19.595779 -5.710579 -0.444606 -12.930013 -1.699989 4.311402 -0.012535 0.000001 0.000000 0.000000 0.000000 -0.000000 -6.603255 -3.517979 2.354419 17.963281 5.000787 -0.678445 -10.647902 0.487054 -1.351737 -0.000125 0.000001 0.000001 -0.000000 0.000000 0.000000 
1.451187 94.453583 -1.312469 -0.586258 -0.239535 -1.675100 -8.660450 1.068796 1.328398 7.158618 -0.064565 -1.933345 0.000000 0.000000 0.000000 7.164082 0.014679 -1.920351 2.298062 -0.960203 2.970378 -5.268166 -2.191121 2.429275 -0.000000 -0.000000 0.000000 0.900167 -0.376596 -11.998581 0.000000 0.000000 0.000000 16.678630 -35.917574 -54.590062 -0.000000 -19.436116 -0.000004 -27.375263 -1.482271 7.500336 1.014494 26.061586 8.508239 5.918059 15.712794 1.836467 0.442979 5.439419 3.274816 -0.000000 0.000001 -0.000001 0.342659 2.118676 -18.372041 0.136438 1.347611 -11.561728 0.034192 0.677256 -5.780063 -0.000002 0.000001 0.000002 0.587916 2.748646 -23.925968 0.310260 2.017784 -17.474556 -0.026049 0.545691 -11.305146 -0.000001 0.000001 0.000004 0.982995 3.498359 -30.912938 0.621615 2.822437 -24.836450 0.361436 2.174360 -18.883130 -0.000001 -0.000000 -0.000001 3.868793 7.359824 -36.907962 0.930033 -0.671147 -30.764159 0.606905 2.790470 -24.535904 -0.000001 0.000000 -0.000001 1.711240 -7.754987 12.112450 0.000000 0.000000 0.000000 26.139382 49.451102 50.005389 0.000095 27.828837 0.000025 -43.986159 0.003322 -10.380650 6.235962 -20.791974 -12.668532 7.526092 -13.852502 0.551896 0.125477 -2.493831 -2.001467 -0.000001 0.000001 0.000001 0.518327 -2.601345 22.534024 0.225978 -1.737140 14.822171 0.056718 -0.875888 7.409370 0.000001 -0.000000 0.000003 0.684819 -2.970620 25.792316 0.342335 -2.128595 18.271220 -0.036662 -0.466446 10.517358 -0.000001 0.000000 -0.000001 0.923520 -3.417220 29.869309 0.520603 -2.606912 22.584029 0.227659 -1.767119 15.070099 -0.000001 0.000001 0.000001 1.164960 -3.800767 33.518692 0.676473 -2.953382 25.796875 0.346142 -2.140069 18.373240 0.000002 0.000000 -0.000000 -5.785750 6.033508 -0.299458 19.527475 -5.721639 -0.435169 -12.945750 -1.379318 4.362695 -0.014037 0.000001 -0.000001 -0.000000 -0.000000 0.000000 -6.500455 -3.124423 2.299925 17.911048 4.678745 -0.582812 -10.615834 0.489014 -1.292504 -0.000128 0.000001 -0.000001 0.000000 0.000000 -0.000000 
1.440363 94.463486 -1.363094 -0.709367 -0.223820 -1.701342 -8.176812 0.973723 1.383075 7.011702 -0.071746 -1.944895 0.000000 0.000000 0.000000 7.017102 0.003845 -1.932846 2.313504 -0.946553 2.947246 -5.389746 -2.180465 2.484540 0.000000 -0.000000 0.000000 0.904811 -0.378310 -11.998568 0.000000 0.000000 0.000000 16.265068 -35.617545 -54.786197 0.000005 -19.258067 0.000014 -29.547439 -1.163279 7.263449 1.040273 26.082752 8.502826 5.922174 15.714536 1.829689 0.444853 5.440365 3.271774 -0.000001 0.000003 0.000000 0.343683 2.121742 -18.399637 0.136610 1.348460 -11.569075 0.034232 0.677676 -5.783741 -0.000001 0.000000 0.000001 0.600268 2.776414 -23.927983 0.309672 2.015915 -17.457919 -0.026232 0.543341 -11.285106 0.000001 0.000000 -0.000001 1.016062 3.553571 -30.883745 0.619311 2.817472 -24.789726 0.359553 2.168850 -18.833444 -0.000001 0.000001 -0.000001 3.923233 7.437713 -36.854639 0.925897 -0.678098 -30.695307 0.603365 2.782717 -24.463178 0.000000 -0.000000 -0.000000 1.711479 -7.731767 12.111767 0.000000 0.000000 0.000000 26.019387 49.413181 50.048208 0.000095 27.841963 0.000004 -43.728258 0.044877 -10.355566 6.248960 -20.810914 -12.667942 7.526092 -13.852503 0.551894 0.125478 -2.493834 -2.001468 -0.000001 -0.000001 -0.000000 0.518694 -2.602218 22.542124 0.226243 -1.738161 14.831066 0.056783 -0.876406 7.413828 -0.000000 0.000001 0.000001 0.694480 -2.990616 25.776825 0.341829 -2.127054 18.257524 -0.042795 -0.465463 10.499413 0.000000 -0.000000 -0.000002 0.947789 -3.459534 29.824636 0.518695 -2.602331 22.542165 0.219116 -1.763804 15.024195 -0.000000 0.000001 0.000002 1.204959 -3.861314 33.448335 0.673238 -2.946682 25.733948 0.343634 -2.132502 18.305976 -0.000001 0.000000 0.000002 -5.653828 6.198083 -0.295229 19.510569 -5.715422 -0.426725 -12.959568 -1.162836 4.390907 -0.016320 0.000002 0.000000 0.000000 0.000000 -0.000000 -6.366796 -2.710722 2.276457 17.837215 4.320522 -0.467986 -10.581674 0.468449 -1.234298 -0.000079 0.000001 0.000001 -0.000000 0.000000 0.000000 
